inDegrees=no
num_controls=7
num_derivatives=13
num_iterations=168
num_multipliers=7
num_parameters=0
num_slacks=7
num_states=26
objective=5.093470
objective_accelerations=0.326364
objective_balance=0.031967
objective_effort=0.163695
objective_height=4.463304
objective_ligament=0.108141
solver_duration=1849.306106
status=Solve_Succeeded
success=true
DataType=double
version=3
OpenSimVersion=4.4-2022-07-23-0e9fedc
endheader
time	/jointset/ground_pelvis/pelvis_tilt/value	/jointset/ground_pelvis/pelvis_tx/value	/jointset/ground_pelvis/pelvis_ty/value	/jointset/hip_l/hip_flexion_l/value	/jointset/hip_l/hip_adduction_l/value	/jointset/hip_l/hip_rotation_l/value	/jointset/back/lumbar_extension/value	/jointset/patellofemoral_l/patellar_flexion_l/value	/jointset/knee_l/knee_flexion_l/value	/jointset/knee_l/knee_adduction_l/value	/jointset/knee_l/knee_rotation_l/value	/jointset/ankle_l/ankle_angle_l/value	/jointset/subtalar_l/subtalar_angle_l/value	/jointset/ground_pelvis/pelvis_tilt/speed	/jointset/ground_pelvis/pelvis_tx/speed	/jointset/ground_pelvis/pelvis_ty/speed	/jointset/hip_l/hip_flexion_l/speed	/jointset/hip_l/hip_adduction_l/speed	/jointset/hip_l/hip_rotation_l/speed	/jointset/back/lumbar_extension/speed	/jointset/patellofemoral_l/patellar_flexion_l/speed	/jointset/knee_l/knee_flexion_l/speed	/jointset/knee_l/knee_adduction_l/speed	/jointset/knee_l/knee_rotation_l/speed	/jointset/ankle_l/ankle_angle_l/speed	/jointset/subtalar_l/subtalar_angle_l/speed	/forceset/tau_hip_flexion_l	/forceset/tau_hip_adduction_l	/forceset/tau_hip_rotation_l	/forceset/tau_knee_flexion_l	/forceset/tau_ankle_angle_l	/forceset/tau_subtalar_angle_l	/forceset/tau_lumbar_extension	lambda_cid13_p0	lambda_cid13_p1	lambda_cid13_p2	lambda_cid13_p3	lambda_cid13_p4	lambda_cid13_p5	lambda_cid14_p0	/jointset/ground_pelvis/pelvis_tilt/accel	/jointset/ground_pelvis/pelvis_tx/accel	/jointset/ground_pelvis/pelvis_ty/accel	/jointset/hip_l/hip_flexion_l/accel	/jointset/hip_l/hip_adduction_l/accel	/jointset/hip_l/hip_rotation_l/accel	/jointset/back/lumbar_extension/accel	/jointset/patellofemoral_l/patellar_flexion_l/accel	/jointset/knee_l/knee_flexion_l/accel	/jointset/knee_l/knee_adduction_l/accel	/jointset/knee_l/knee_rotation_l/accel	/jointset/ankle_l/ankle_angle_l/accel	/jointset/subtalar_l/subtalar_angle_l/accel	gamma_cid13_p0	gamma_cid13_p1	gamma_cid13_p2	gamma_cid13_p3	gamma_cid13_p4	gamma_cid13_p5	gamma_cid14_p0
1	-0.1658296455239527	0.08810197390122401	0.7320550179080142	0.902834512030683	-0.4992416063443225	-0.1171007662089032	-0.2617984475324436	1.098655080410543	1.098655080410541	-0.1564121965617606	-0.1745322821959586	0.436313481904834	0.09419504420663186	-0.01723925750441394	0.008817766643820123	-0.0002071579390036347	0.002854179587730397	-0.001508055192521385	-0.003693789826322882	9.56818660013482e-06	-0.002097524772988003	-0.002097524772987381	0.0001798414080226276	-5.514177927642314e-06	0.01128510204124276	0.0068309916177215	-0.107952863412497	0.07305508917018882	-0.01179159863211581	-0.3052793540834419	-0.1038907640110824	0.02378232767167099	0.1340477139391076	-69.55966886739239	-1.065820544168603	3.165404834433577	13.16799539801686	-594.9057219224379	-67.73371503782917	-12.3380679278444	0.4957523074357081	-0.07552012442788264	1.018212353945186	-3.058797206748952	0.4497339425701401	-1.881940161050077	-0.01066370772715099	-4.018654836400284	-4.018654836400284	0.02511795769962536	-0.003930340758644032	-1.885756351347713	-0.7556260942268302	8.90880391607343e-10	9.886103689939144e-09	-5.105459635352643e-09	2.887209816801094e-09	3.921340545543986e-10	1.730759518259997e-08	6.314955165053675e-11
1.01	-0.1659778283850384	0.08818635449023901	0.7321037282489355	0.902711134900002	-0.4992338823319599	-0.1172325328195133	-0.2617983138435144	1.098433627696133	1.098433627696126	-0.156407635519304	-0.1745323470881881	0.436332265118784	0.09422629616694432	-0.01239388195923028	0.008058098080256981	0.009947231543844793	-0.02752823446785809	0.003054248834888765	-0.02265548852941145	5.292020447639041e-06	-0.04218940737645016	-0.04218940737644897	0.0007321348332381395	-6.720804944011033e-06	-0.007528344675832417	-0.0005780477358555573	-0.1079091640360321	0.07306607170867002	-0.01179477720882789	-0.3051246302892712	-0.1039059225116839	0.02377967292874943	0.1339939684521554	-69.55354095626763	-1.069191844057583	3.169884881116095	13.11897885688514	-594.7595113148245	-67.71817248022852	-12.34752506549003	0.4794447661273012	-0.07622764500252631	1.013751952479442	-3.027758257305182	0.4596852475192943	-1.902680488850194	0.002908790206823298	-4.003912673486969	-4.003912673486864	0.07024988138405738	0.001899454340310925	-1.879121779913826	-0.7331625102005104	-3.213187274670173e-09	2.147602996412081e-09	1.779394532100028e-08	2.69854482507962e-09	-5.471130554141825e-09	4.825350788825827e-09	-3.40998745821687e-09
1.02	-0.1660774545730614	0.08826313090908204	0.7322539224260903	0.9022839746782885	-0.4991804939563865	-0.1175537955699366	-0.2617985792436454	1.097811364615458	1.097811364615441	-0.1563975585733003	-0.1745324009910964	0.4361629172760572	0.09418353380286523	-0.007527922891335848	0.007296932609427168	0.02008960930767199	-0.05790243861710014	0.007624817450017547	-0.04159301778898047	-7.024969504666455e-05	-0.08225959802662583	-0.0822595980266239	0.00128302211651306	-3.316311421790592e-06	-0.02634110931396588	-0.007971873260528681	-0.1078654646596317	0.07307705424713513	-0.01179795578548673	-0.3049699064951133	-0.1039210810122903	0.02377701818579566	0.1339402229651467	-69.55647229809416	-1.072503835998682	3.176098856573792	13.09703956671541	-594.7453308537084	-67.70519314279355	-12.37411898080139	0.4998690119779291	-0.07581950588127748	1.015810010140944	-3.057155225479629	0.4513868601139119	-1.877106272346112	-0.02491681759433668	-4.01431644574299	-4.014316445742956	0.02483672931153961	-0.003008116650835826	-1.885619935559449	-0.7525833284460322	-7.739916012001325e-09	-5.270469765478899e-09	4.025616232008431e-08	3.451977080804172e-09	-1.125558036143154e-08	-5.899100638877334e-09	-7.070517894849717e-09
1.03	-0.1661285517420321	0.08833232439397241	0.7325054412596785	0.9015533186544923	-0.499081358312458	-0.1180642584601582	-0.2617993877991494	1.096788489567279	1.096788489567257	-0.1563820458859745	-0.1745323988735075	0.4358054570120852	0.09406694501603738	-0.002711812649167806	0.006545144347980062	0.03020823801975029	-0.08820657199289658	0.01220358515620357	-0.06049247842775104	-4.78831172062665e-05	-0.1223136142407519	-0.1223136142407507	0.001814304381980236	2.748014822939569e-06	-0.04514975421077821	-0.01534009251323159	-0.1080371766283401	0.07323867180948908	-0.01179652083619237	-0.304329430599016	-0.1042432693289196	0.0238056042524412	0.1340890867308776	-69.6467973331427	-1.082397246252253	3.192861137325599	13.10096819767958	-594.6126716056045	-67.65576148505437	-12.41785391062399	0.46943601645295	-0.07435064182249046	1.008997950302314	-3.013714335653797	0.4613048688048341	-1.895311865444411	0.02254098198029755	-4.000672435099904	-4.000672435100057	0.0664901475137594	0.002276558096970254	-1.878309641044196	-0.7280778197853597	-1.227095761740445e-08	-1.268527285459808e-08	6.271391821756354e-08	4.215022573747566e-09	-1.703922593605385e-08	-1.660561540366139e-08	-1.07329605093067e-08
